<svg xmlns="http://www.w3.org/2000/svg" version="1.1" xmlns:xlink="http://www.w3.org/1999/xlink" xmlns:svgjs="http://svgjs.dev/svgjs" viewBox="0 0 800 800"><defs><linearGradient x1="50%" y1="0%" x2="50%" y2="100%" id="ffflurry-grad" gradientTransform="rotate(270)"><stop stop-color="#0F0F0F" stop-opacity="1" offset="0%"></stop><stop stop-color="hsl(1.4, 100%, 67%)" stop-opacity="1" offset="45%"></stop><stop stop-color="hsl(167, 52%, 78%)" stop-opacity="1" offset="100%"></stop></linearGradient></defs><rect width="100%" height="100%" fill="#0f0f0f"></rect><g fill="url(#ffflurry-grad)"><rect width="586" height="3" x="-214" y="135.5" rx="1.5" transform="rotate(45, 79, 137)" opacity="0.64"></rect><rect width="138" height="3" x="441" y="564.5" rx="1.5" transform="rotate(45, 510, 566)" opacity="0.62"></rect><rect width="188" height="3" x="20" y="486.5" rx="1.5" transform="rotate(45, 114, 488)" opacity="0.48"></rect><rect width="202" height="3" x="397" y="171.5" rx="1.5" transform="rotate(45, 498, 173)" opacity="0.19"></rect><rect width="109" height="3" x="724.5" y="80.5" rx="1.5" transform="rotate(45, 779, 82)" opacity="0.61"></rect><rect width="369" height="3" x="137.5" y="447.5" rx="1.5" transform="rotate(45, 322, 449)" opacity="0.80"></rect><rect width="187" height="3" x="284.5" y="119.5" rx="1.5" transform="rotate(45, 378, 121)" opacity="0.41"></rect><rect width="273" height="3" x="-98.5" y="482.5" rx="1.5" transform="rotate(45, 38, 484)" opacity="0.54"></rect><rect width="331" height="3" x="425.5" y="760.5" rx="1.5" transform="rotate(45, 591, 762)" opacity="0.66"></rect><rect width="217" height="3" x="-82.5" y="218.5" rx="1.5" transform="rotate(45, 26, 220)" opacity="0.59"></rect><rect width="319" height="3" x="594.5" y="398.5" rx="1.5" transform="rotate(45, 754, 400)" opacity="0.25"></rect><rect width="522" height="3" x="408" y="712.5" rx="1.5" transform="rotate(45, 669, 714)" opacity="0.74"></rect><rect width="62" height="3" x="303" y="345.5" rx="1.5" transform="rotate(45, 334, 347)" opacity="0.43"></rect><rect width="389" height="3" x="510.5" y="331.5" rx="1.5" transform="rotate(45, 705, 333)" opacity="0.24"></rect><rect width="363" height="3" x="414.5" y="104.5" rx="1.5" transform="rotate(45, 596, 106)" opacity="0.37"></rect><rect width="615" height="3" x="89.5" y="756.5" rx="1.5" transform="rotate(45, 397, 758)" opacity="0.88"></rect><rect width="35" height="3" x="100.5" y="366.5" rx="1.5" transform="rotate(45, 118, 368)" opacity="0.76"></rect><rect width="361" height="3" x="-14.5" y="549.5" rx="1.5" transform="rotate(45, 166, 551)" opacity="0.52"></rect><rect width="392" height="3" x="-105" y="764.5" rx="1.5" transform="rotate(45, 91, 766)" opacity="0.66"></rect><rect width="70" height="3" x="535" y="187.5" rx="1.5" transform="rotate(45, 570, 189)" opacity="0.28"></rect><rect width="487" height="3" x="281.5" y="705.5" rx="1.5" transform="rotate(45, 525, 707)" opacity="0.26"></rect><rect width="791" height="3" x="-197.5" y="197.5" rx="1.5" transform="rotate(45, 198, 199)" opacity="0.43"></rect><rect width="55" height="3" x="285.5" y="526.5" rx="1.5" transform="rotate(45, 313, 528)" opacity="0.13"></rect><rect width="255" height="3" x="558.5" y="549.5" rx="1.5" transform="rotate(45, 686, 551)" opacity="0.33"></rect><rect width="380" height="3" x="528" y="83.5" rx="1.5" transform="rotate(45, 718, 85)" opacity="0.36"></rect><rect width="196" height="3" x="114" y="417.5" rx="1.5" transform="rotate(45, 212, 419)" opacity="0.88"></rect><rect width="556" height="3" x="166" y="663.5" rx="1.5" transform="rotate(45, 444, 665)" opacity="0.81"></rect><rect width="881" height="3" x="139.5" y="475.5" rx="1.5" transform="rotate(45, 580, 477)" opacity="0.14"></rect><rect width="387" height="3" x="133.5" y="204.5" rx="1.5" transform="rotate(45, 327, 206)" opacity="0.83"></rect><rect width="59" height="3" x="749.5" y="681.5" rx="1.5" transform="rotate(45, 779, 683)" opacity="0.19"></rect><rect width="681" height="3" x="281.5" y="346.5" rx="1.5" transform="rotate(45, 622, 348)" opacity="0.08"></rect><rect width="179" height="3" x="153.5" y="543.5" rx="1.5" transform="rotate(45, 243, 545)" opacity="0.58"></rect><rect width="405" height="3" x="52.5" y="756.5" rx="1.5" transform="rotate(45, 255, 758)" opacity="0.33"></rect><rect width="375" height="3" x="268.5" y="31.5" rx="1.5" transform="rotate(45, 456, 33)" opacity="0.96"></rect><rect width="175" height="3" x="253.5" y="661.5" rx="1.5" transform="rotate(45, 341, 663)" opacity="0.43"></rect><rect width="226" height="3" x="622" y="26.5" rx="1.5" transform="rotate(45, 735, 28)" opacity="0.91"></rect><rect width="111" height="3" x="204.5" y="337.5" rx="1.5" transform="rotate(45, 260, 339)" opacity="0.44"></rect><rect width="413" height="3" x="-106.5" y="238.5" rx="1.5" transform="rotate(45, 100, 240)" opacity="0.72"></rect><rect width="160" height="3" x="146" y="471.5" rx="1.5" transform="rotate(45, 226, 473)" opacity="0.09"></rect><rect width="252" height="3" x="266" y="514.5" rx="1.5" transform="rotate(45, 392, 516)" opacity="0.28"></rect><rect width="45" height="3" x="387.5" y="360.5" rx="1.5" transform="rotate(45, 410, 362)" opacity="0.21"></rect><rect width="167" height="3" x="118.5" y="689.5" rx="1.5" transform="rotate(45, 202, 691)" opacity="0.58"></rect><rect width="193" height="3" x="663.5" y="159.5" rx="1.5" transform="rotate(45, 760, 161)" opacity="0.37"></rect><rect width="430" height="3" x="163" y="279.5" rx="1.5" transform="rotate(45, 378, 281)" opacity="0.29"></rect><rect width="163" height="3" x="47.5" y="425.5" rx="1.5" transform="rotate(45, 129, 427)" opacity="0.17"></rect><rect width="781" height="3" x="-124.5" y="68.5" rx="1.5" transform="rotate(45, 266, 70)" opacity="0.80"></rect><rect width="583" height="3" x="-255.5" y="368.5" rx="1.5" transform="rotate(45, 36, 370)" opacity="0.61"></rect><rect width="270" height="3" x="597" y="774.5" rx="1.5" transform="rotate(45, 732, 776)" opacity="0.38"></rect><rect width="48" height="3" x="727" y="717.5" rx="1.5" transform="rotate(45, 751, 719)" opacity="0.78"></rect><rect width="458" height="3" x="-47" y="309.5" rx="1.5" transform="rotate(45, 182, 311)" opacity="0.26"></rect><rect width="214" height="3" x="582" y="150.5" rx="1.5" transform="rotate(45, 689, 152)" opacity="0.96"></rect><rect width="464" height="3" x="29" y="269.5" rx="1.5" transform="rotate(45, 261, 271)" opacity="0.84"></rect><rect width="504" height="3" x="15" y="613.5" rx="1.5" transform="rotate(45, 267, 615)" opacity="0.25"></rect><rect width="34" height="3" x="77" y="304.5" rx="1.5" transform="rotate(45, 94, 306)" opacity="0.64"></rect><rect width="127" height="3" x="128.5" y="372.5" rx="1.5" transform="rotate(45, 192, 374)" opacity="0.19"></rect><rect width="93" height="3" x="462.5" y="378.5" rx="1.5" transform="rotate(45, 509, 380)" opacity="0.49"></rect><rect width="147" height="3" x="699.5" y="317.5" rx="1.5" transform="rotate(45, 773, 319)" opacity="0.41"></rect><rect width="388" height="3" x="282" y="105.5" rx="1.5" transform="rotate(45, 476, 107)" opacity="0.48"></rect><rect width="309" height="3" x="593.5" y="623.5" rx="1.5" transform="rotate(45, 748, 625)" opacity="0.32"></rect><rect width="134" height="3" x="363" y="451.5" rx="1.5" transform="rotate(45, 430, 453)" opacity="0.76"></rect><rect width="291" height="3" x="-96.5" y="582.5" rx="1.5" transform="rotate(45, 49, 584)" opacity="0.49"></rect><rect width="703" height="3" x="-247.5" y="48.5" rx="1.5" transform="rotate(45, 104, 50)" opacity="0.95"></rect><rect width="229" height="3" x="288.5" y="581.5" rx="1.5" transform="rotate(45, 403, 583)" opacity="0.42"></rect><rect width="226" height="3" x="17" y="637.5" rx="1.5" transform="rotate(45, 130, 639)" opacity="0.55"></rect><rect width="154" height="3" x="675" y="202.5" rx="1.5" transform="rotate(45, 752, 204)" opacity="0.15"></rect><rect width="225" height="3" x="586.5" y="454.5" rx="1.5" transform="rotate(45, 699, 456)" opacity="0.90"></rect><rect width="231" height="3" x="656.5" y="125.5" rx="1.5" transform="rotate(45, 772, 127)" opacity="0.12"></rect><rect width="190" height="3" x="540" y="178.5" rx="1.5" transform="rotate(45, 635, 180)" opacity="0.68"></rect><rect width="617" height="3" x="167.5" y="262.5" rx="1.5" transform="rotate(45, 476, 264)" opacity="0.96"></rect><rect width="259" height="3" x="163.5" y="393.5" rx="1.5" transform="rotate(45, 293, 395)" opacity="0.97"></rect><rect width="177" height="3" x="-40.5" y="694.5" rx="1.5" transform="rotate(45, 48, 696)" opacity="0.85"></rect><rect width="115" height="3" x="553.5" y="36.5" rx="1.5" transform="rotate(45, 611, 38)" opacity="0.47"></rect><rect width="511" height="3" x="332.5" y="261.5" rx="1.5" transform="rotate(45, 588, 263)" opacity="0.16"></rect><rect width="259" height="3" x="641.5" y="526.5" rx="1.5" transform="rotate(45, 771, 528)" opacity="0.89"></rect><rect width="206" height="3" x="521" y="621.5" rx="1.5" transform="rotate(45, 624, 623)" opacity="0.67"></rect><rect width="416" height="3" x="489" y="251.5" rx="1.5" transform="rotate(45, 697, 253)" opacity="0.75"></rect><rect width="165" height="3" x="692.5" y="250.5" rx="1.5" transform="rotate(45, 775, 252)" opacity="0.52"></rect></g></svg>